<svg width="33" height="36" viewBox="0 0 33 36" fill="none" xmlns="http://www.w3.org/2000/svg">
<path fill-rule="evenodd" clip-rule="evenodd" d="M20.1445 1.8358C20.1445 2.59483 19.6838 3.24626 19.0268 3.52581L26.2579 14.3804H23.8731L26.5157 18.3037C19.2988 21.6849 13.7195 18.1013 12.2975 15.0435L12.7442 14.3804H10.3594L17.5905 3.52581C16.9335 3.24626 16.4729 2.59483 16.4729 1.8358C16.4729 0.821916 17.2948 0 18.3087 0C19.3225 0 20.1445 0.821916 20.1445 1.8358ZM11.354 16.4443L7.1797 22.6415H10.4285L4 32.1265H32.6173L26.1888 22.6415H29.4376L27.363 19.5616C19.9247 23.1596 13.6322 20.0806 11.354 16.4443ZM21.3683 35.4921V33.0444H15.249V35.4921H21.3683ZM20.1445 12.8506C20.1445 13.8645 19.3225 14.6864 18.3087 14.6864C17.2948 14.6864 16.4729 13.8645 16.4729 12.8506C16.4729 11.8367 17.2948 11.0148 18.3087 11.0148C19.3225 11.0148 20.1445 11.8367 20.1445 12.8506ZM15.249 27.537C15.249 28.5509 14.4271 29.3728 13.4132 29.3728C12.3993 29.3728 11.5774 28.5509 11.5774 27.537C11.5774 26.5231 12.3993 25.7012 13.4132 25.7012C14.4271 25.7012 15.249 26.5231 15.249 27.537ZM21.9803 26.9251C22.9941 26.9251 23.8161 26.1032 23.8161 25.0893C23.8161 24.0754 22.9941 23.2535 21.9803 23.2535C20.9664 23.2535 20.1445 24.0754 20.1445 25.0893C20.1445 26.1032 20.9664 26.9251 21.9803 26.9251Z" fill="white"/>
</svg>
